<svg width="788" height="789" viewBox="0 0 788 789" fill="none" xmlns="http://www.w3.org/2000/svg">
<circle cx="644" cy="131" r="32"  fill="#C8D6E2"/>
<circle cx="589" cy="255" r="32"  fill="#C8D6E2"/>
<circle cx="621" cy="462" r="32"  fill="#C8D6E2"/>
<circle cx="724" cy="287" r="32"  fill="#C8D6E2"/>
<circle cx="441" cy="471" r="64"  fill="#C8D6E2"/>
<circle cx="509" cy="707" r="64"  fill="#C8D6E2"/>
<circle cx="724" cy="407" r="64"  fill="#C8D6E2"/>
<circle cx="128" cy="371" r="64"  fill="#C8D6E2"/>
<circle cx="372" cy="167" r="64"  fill="#C8D6E2"/>
<circle cx="425" cy="615" r="32"  fill="#C8D6E2"/>
<circle cx="304" cy="693" r="32"  fill="#C8D6E2"/>
<circle cx="132" cy="487" r="32"  fill="#C8D6E2"/>
<circle cx="179" cy="195" r="32"  fill="#C8D6E2"/>
<circle cx="340" cy="32"  r="32"  fill="#C8D6E2"/>
<circle cx="306" cy="279" r="16"  fill="#C8D6E2"/>
<circle cx="409" cy="319" r="16"  fill="#C8D6E2"/>
<circle cx="692" cy="207" r="16"  fill="#C8D6E2"/>
<circle cx="352" cy="599" r="16"  fill="#C8D6E2"/>
<circle cx="372" cy="407" r="16"  fill="#C8D6E2"/>
<circle cx="235" cy="287" r="16"  fill="#C8D6E2"/>
<circle cx="290" cy="427" r="16"  fill="#C8D6E2"/>
<circle cx="84"  cy="207" r="16"  fill="#C8D6E2"/>
<circle cx="272" cy="163" r="16"  fill="#C8D6E2"/>
<circle cx="163" cy="87"  r="16"  fill="#C8D6E2"/>
<circle cx="329" cy="90"  r="16"  fill="#C8D6E2"/>
<circle cx="131" cy="271" r="16"  fill="#C8D6E2"/>
<circle cx="580" cy="645" r="16"  fill="#C8D6E2"/>
<circle cx="457" cy="39"  r="16"  fill="#C8D6E2"/>
<circle cx="404" cy="255" r="16"  fill="#C8D6E2"/>
<circle cx="508" cy="235" r="16"  fill="#C8D6E2"/>
<circle cx="557" cy="395" r="16"  fill="#C8D6E2"/>
<circle cx="548" cy="71"  r="16"  fill="#C8D6E2"/>
<circle cx="692" cy="534" r="16"  fill="#C8D6E2"/>
<circle cx="548" cy="491" r="16"  fill="#C8D6E2"/>
<circle cx="628" cy="335" r="16"  fill="#C8D6E2"/>
<circle cx="549" cy="319" r="8"   fill="#C8D6E2"/>
<circle cx="516" cy="375" r="8"   fill="#C8D6E2"/>
<circle cx="668" cy="255" r="8"   fill="#C8D6E2"/>
<circle cx="620" cy="379" r="8"   fill="#C8D6E2"/>
<circle cx="573" cy="155" r="8"   fill="#C8D6E2"/>
<circle cx="256" cy="223" r="8"   fill="#C8D6E2"/>
<circle cx="132" cy="139" r="8"   fill="#C8D6E2"/>
<circle cx="364" cy="278" r="8"   fill="#C8D6E2"/>
<circle cx="429" cy="371" r="8"   fill="#C8D6E2"/>
<circle cx="532" cy="187" r="8"   fill="#C8D6E2"/>
<circle cx="300" cy="575" r="8"   fill="#C8D6E2"/>
<circle cx="192" cy="507" r="8"   fill="#C8D6E2"/>
<circle cx="533" cy="623" r="8"   fill="#C8D6E2"/>
<circle cx="716" cy="495" r="8"   fill="#C8D6E2"/>
<circle cx="128" cy="567" r="8"   fill="#C8D6E2"/>
<circle cx="37"  cy="471" r="8"   fill="#C8D6E2"/>
<circle cx="84"  cy="263" r="8"   fill="#C8D6E2"/>
<circle cx="349" cy="494" r="16"  fill="#C8D6E2"/>
<circle cx="211" cy="567" r="16"  fill="#C8D6E2"/>
<circle cx="259" cy="615" r="16"  fill="#C8D6E2"/>
<circle cx="48"  cy="407" r="16"  fill="#C8D6E2"/>
<circle cx="227" cy="462" r="16"  fill="#C8D6E2"/>
<circle cx="227" cy="709" r="16"  fill="#C8D6E2"/>
<circle cx="393" cy="691" r="16"  fill="#C8D6E2"/>
<circle cx="612" cy="567" r="16"  fill="#C8D6E2"/>
<circle cx="476" cy="131" r="32"  fill="#C8D6E2"/>
<circle cx="409" cy="757" r="32"  fill="#C8D6E2"/>
<circle cx="147" cy="647" r="32"  fill="#C8D6E2"/>
<circle cx="290" cy="494" r="32"  fill="#C8D6E2"/>
<circle cx="32"  cy="311" r="32"  fill="#C8D6E2"/>
<circle cx="64"  cy="567" r="32"  fill="#C8D6E2"/>
<circle cx="484" cy="319" r="32"  fill="#C8D6E2"/>
<circle cx="345" cy="343" r="32"  fill="#C8D6E2"/>
<circle cx="248" cy="90"  r="32"  fill="#C8D6E2"/>
<circle cx="235" cy="367" r="32"  fill="#C8D6E2"/>
<circle cx="508" cy="558" r="32"  fill="#C8D6E2"/>
<circle cx="660" cy="629" r="32"  fill="#C8D6E2"/>
</svg>
