<svg width="100%" viewBox="0 0 289 254" fill="none" xmlns="http://www.w3.org/2000/svg">
<path d="M152.087 227.311C210.729 227.311 258.267 182.244 258.267 126.651C258.267 71.0577 210.729 25.9907 152.087 25.9907C93.4456 25.9907 45.9072 71.0577 45.9072 126.651C45.9072 182.244 93.4456 227.311 152.087 227.311Z" fill="#DAEFFF"/>
<path d="M210.317 42.4609C207.747 42.5909 207.457 44.1009 208.217 49.1709C204.727 48.3809 201.327 51.4109 197.777 49.4409C197.503 49.3959 197.222 49.3959 196.947 49.4409C193.517 50.0209 193.417 49.9209 194.157 46.3209C194.356 45.6844 194.516 45.0366 194.637 44.3809C194.699 43.5587 194.656 42.732 194.507 41.9209H194.067C193.477 44.3509 191.447 46.4409 192.277 49.4109C192.277 49.7009 191.617 50.5609 191.277 50.5509C190.096 50.5163 188.933 50.85 187.949 51.5058C186.965 52.1615 186.21 53.1069 185.787 54.2109C185.577 54.4009 185.247 54.7809 185.047 54.7809C184.171 54.821 183.332 55.1482 182.66 55.7119C181.988 56.2757 181.52 57.0449 181.327 57.9009C181.217 58.2809 180.377 58.4609 179.957 58.7409C179.227 59.0109 178.687 59.4809 178.067 59.7409C177.447 60.0009 176.707 60.2909 176.067 60.5609L174.067 61.5609C174.441 62.1399 174.877 62.6764 175.367 63.1609C176.493 63.7511 177.575 64.4194 178.607 65.1609C179.697 66.2709 179.797 69.7009 178.607 70.5509C177.867 71.0209 176.537 70.4909 175.607 70.2609C173.981 69.8687 172.336 69.5616 170.677 69.3409C170.055 69.2881 169.436 69.4833 168.957 69.8841C168.478 70.2848 168.176 70.8587 168.117 71.4809C168.095 71.9057 168.192 72.3283 168.397 72.7009C168.668 73.2724 168.79 73.903 168.751 74.5342C168.713 75.1653 168.516 75.7765 168.177 76.3109C167.177 78.0509 167.597 81.3909 168.827 81.7209C170.411 82.34 172.057 82.7827 173.737 83.0409C174.384 83.2598 175.09 83.2209 175.708 82.9321C176.327 82.6434 176.81 82.1271 177.057 81.4909C177.062 81.451 177.062 81.4108 177.057 81.3709C178.599 78.0031 181.192 75.2271 184.447 73.4609C184.767 73.2809 185.187 73.0009 185.397 72.9009C184.697 72.0009 184.317 71.2109 183.807 70.6109C184.717 70.4306 185.661 70.5609 186.487 70.9809C188.017 71.6109 189.487 71.9809 190.487 69.9209C190.827 68.8509 191.757 68.9209 192.487 69.7809C192.895 70.2753 193.192 70.8517 193.357 71.4709C193.997 74.0409 195.927 74.9809 197.747 76.2109C198.657 76.6687 199.394 77.409 199.847 78.3209C200.096 79.1959 200.029 80.1306 199.657 80.9609C199.327 81.4409 198.297 81.4109 197.467 81.6809H196.227C196.227 81.7709 196.117 81.9709 196.107 82.0609C196.707 82.5709 197.407 83.4709 198.107 83.2909C199.967 83.1609 201.297 80.4509 201.297 77.2909C201.976 77.4635 202.644 77.6772 203.297 77.9309C203.407 77.8409 203.517 77.5509 203.627 77.4609C202.317 76.3409 200.907 75.4609 199.707 74.2109C197.997 72.7909 196.067 71.8509 196.047 69.2109C195.867 68.4209 195.187 67.2109 196.537 66.9709C197.677 66.8109 199.117 66.9709 199.067 68.6109C199.067 71.4509 200.907 72.2909 202.837 73.2309C203.64 73.46 204.372 73.8863 204.967 74.4709C205.219 74.7134 205.417 75.0061 205.547 75.33C205.678 75.6539 205.74 76.0017 205.727 76.3509C205.431 77.0038 205.329 77.7284 205.433 78.4378C205.538 79.1472 205.845 79.8114 206.317 80.3509C206.688 80.8383 206.984 81.3774 207.197 81.9509C207.585 82.6632 207.877 83.4229 208.067 84.2109C208.707 83.6409 209.327 83.2709 209.967 82.7009C210.177 82.5413 210.359 82.3488 210.507 82.1309C211.507 81.2809 211.587 80.6009 210.507 79.7809C209.892 79.1924 209.327 78.5535 208.817 77.8709C209.457 77.3386 210.228 76.9881 211.05 76.8562C211.871 76.7242 212.713 76.8157 213.487 77.1209C214.605 77.4012 215.786 77.2625 216.807 76.7309C217.117 76.5509 216.657 74.7309 216.697 73.7309C216.465 72.7632 216.5 71.7505 216.797 70.8009C217.283 69.5369 217.983 68.3664 218.867 67.3409C219.617 66.4809 220.687 65.4309 221.097 65.5409C222.194 66.1101 223.099 66.9901 223.697 68.0709C224.307 68.4809 224.577 69.5609 225.197 69.5809C226.07 69.5133 226.92 69.2719 227.697 68.8709C227.697 68.5809 227.607 68.4809 227.617 68.2809C226.617 67.8609 225.677 67.5409 224.617 67.1209V66.5309C227.117 65.9209 229.617 65.2109 232.117 64.5309C231.68 65.5119 231.093 66.4193 230.377 67.2209C229.087 68.8409 229.067 69.5309 230.567 70.8509C231.589 71.4869 232.506 72.2761 233.287 73.1909C233.791 74.0508 233.942 75.0723 233.707 76.0409C233.587 76.6309 232.327 77.1809 231.607 77.1609C230.355 76.9881 229.151 76.5629 228.067 75.9109C227.071 75.2302 225.9 74.8487 224.693 74.8115C223.487 74.7743 222.294 75.0829 221.257 75.7009C219.377 76.4309 217.697 77.1709 215.917 78.0009C215.487 78.2809 214.767 78.6509 214.747 79.0009C215.19 80.8289 215.789 82.6154 216.537 84.3409C216.83 84.6255 217.189 84.8336 217.581 84.9469C217.974 85.0603 218.388 85.0754 218.787 84.9909C219.957 83.7509 220.557 84.3609 221.467 85.1709C222.557 86.4709 223.587 86.6009 224.757 85.4609C224.968 85.2304 225.218 85.0405 225.497 84.9009C225.93 86.0034 226.498 87.0481 227.187 88.0109C228.187 89.2109 228.187 89.9009 226.887 90.9409C226.436 91.2314 226.049 91.611 225.75 92.0563C225.451 92.5017 225.246 93.0035 225.147 93.5309C225.147 95.3009 224.567 95.3809 223.437 95.2409C221.896 94.8304 220.302 94.6518 218.707 94.7109C214.828 95.1316 210.925 94.149 207.707 91.9409C207.007 91.4309 205.777 91.1009 205.347 91.5809C204.717 91.9509 204.677 93.2109 204.747 94.1109C204.997 96.1109 204.457 96.6409 202.747 95.8109C200.517 94.5709 198.287 93.1309 196.167 91.8109C194.047 90.4909 192.857 88.8109 193.677 86.0509C194.037 84.3009 193.037 83.3909 191.277 83.5309C190.254 83.731 189.201 83.731 188.177 83.5309C186.546 83.014 184.824 82.8519 183.125 83.0554C181.426 83.2589 179.79 83.8234 178.327 84.7109C176.537 85.8309 174.547 86.5609 172.327 85.3209C172.117 85.2109 171.177 85.7709 170.737 86.2509C169.627 87.3608 168.589 88.5398 167.627 89.7809C166.842 90.7905 166.341 91.9922 166.177 93.2609C166.307 95.6209 165.727 97.2609 163.837 98.3809C161.179 100.178 159.146 102.757 158.017 105.761C157.587 106.431 157.347 107.201 156.917 107.761C156.324 108.436 155.95 109.277 155.846 110.17C155.743 111.064 155.914 111.967 156.337 112.761C157.078 115.022 157.036 117.467 156.217 119.701C155.909 120.374 155.737 121.101 155.711 121.841C155.685 122.581 155.806 123.318 156.067 124.011C157.617 126.45 158.749 129.13 159.417 131.941C159.53 132.351 159.755 132.722 160.067 133.011C161.767 134.721 163.357 136.531 165.167 138.151C166.567 139.471 168.167 140.301 169.987 139.081C171.926 138.078 174.058 137.505 176.237 137.401C177.129 137.474 178.017 137.222 178.737 136.691C180.647 135.381 182.377 135.921 183.987 137.241C184.987 138.151 185.757 140.031 187.647 139.011C187.757 138.921 188.157 139.121 188.357 139.421C189.165 140.147 189.714 141.117 189.922 142.183C190.129 143.25 189.984 144.355 189.507 145.331C188.297 147.741 188.137 149.501 189.637 151.011C191.291 152.546 192.323 154.635 192.537 156.881C192.668 157.722 192.96 158.53 193.397 159.261C195.217 163.331 195.397 167.351 193.007 171.091C192.136 172.399 191.638 173.92 191.567 175.49C191.497 177.06 191.856 178.62 192.607 180.001C193.996 183.049 194.833 186.32 195.077 189.661C195.191 192.255 195.81 194.803 196.897 197.161C198.376 199.551 199.009 202.368 198.697 205.161C198.427 207.311 199.027 207.921 200.997 207.681C203.64 207.517 206.271 207.204 208.877 206.741C209.37 206.567 209.832 206.318 210.247 206.001C214.247 202.881 217.487 199.261 217.777 193.681C217.778 193.08 217.994 192.499 218.387 192.044C218.78 191.589 219.323 191.29 219.917 191.201C220.597 190.833 221.154 190.273 221.517 189.591C221.799 188.837 221.903 188.028 221.824 187.228C221.744 186.427 221.482 185.655 221.057 184.971C220.747 184.084 220.747 183.118 221.057 182.231C222.236 180.671 223.638 179.293 225.217 178.141C228.597 175.791 230.537 170.141 229.427 166.221C228.72 163.797 228.178 161.328 227.807 158.831C226.807 154.781 228.967 152.301 231.807 150.031C234.035 148.549 235.984 146.687 237.567 144.531C240.113 140.848 242.45 137.025 244.567 133.081C244.985 132.014 245.297 130.909 245.497 129.781C244.423 129.693 243.342 129.76 242.287 129.981C240.217 130.211 238.287 130.981 236.287 131.171C235.777 131.251 235.067 130.651 234.677 130.051C233.597 128.151 232.527 126.161 231.357 124.181C231.106 123.57 230.769 122.998 230.357 122.481C229.687 120.901 228.917 119.211 228.357 117.481C227.357 114.221 226.357 111.051 225.357 107.791C224.887 106.401 224.617 105.021 224.147 103.641C223.677 102.261 222.997 101.061 222.317 99.7709C223.047 99.5909 223.447 99.7709 223.647 100.101C225.517 102.891 227.277 105.791 229.147 108.681C229.447 108.991 229.327 109.571 229.407 110.161C229.702 111.034 229.949 111.922 230.147 112.821C232.147 116.901 234.637 120.691 234.787 125.591C234.787 126.871 235.557 127.481 237.017 126.841C238.177 126.281 239.527 126.031 240.677 125.471C242.588 124.726 244.42 123.795 246.147 122.691C247.827 121.691 249.527 120.251 251.317 119.221C252.517 118.51 253.564 117.569 254.399 116.452C255.233 115.335 255.837 114.063 256.177 112.711C256.407 111.931 255.727 110.641 255.347 109.711C254.957 109.011 254.037 108.591 253.437 107.991C252.247 106.781 251.117 106.451 249.627 107.781C248.357 108.781 246.797 109.161 245.507 107.371C245.417 107.071 244.897 107.051 244.697 106.851C244.407 106.351 243.807 105.651 243.927 105.261C244.22 104.538 244.281 103.741 244.102 102.982C243.923 102.222 243.512 101.537 242.927 101.021C242.358 100.513 241.89 99.9025 241.547 99.2209C241.372 98.5627 241.393 97.8674 241.607 97.2209C241.937 96.7409 242.867 96.7709 243.607 96.9909C245.247 97.3309 245.817 98.9109 246.397 100.301C247.727 103.671 248.537 104.091 251.867 103.401C252.146 103.307 252.445 103.289 252.733 103.349C253.022 103.409 253.289 103.544 253.507 103.741C254.188 104.815 255.113 105.713 256.207 106.361C250.427 80.1609 233.947 57.1509 210.317 42.4609Z" fill="#3C90E5"/>
<path d="M52.4574 135.751C54.9974 135.811 56.0174 136.421 56.9374 138.521C57.3098 138.961 57.7695 139.318 58.2874 139.571C58.6174 139.791 59.2174 139.771 59.4874 140.071C60.6474 141.351 62.3474 140.861 63.6974 141.271C64.0669 140.693 64.3848 140.084 64.6474 139.451C67.0174 141.001 68.4474 143.561 68.0174 145.451C67.5619 147.258 67.1981 149.087 66.9274 150.931C67.058 151.669 67.3224 152.377 67.7074 153.021C67.8074 153.281 68.1674 153.771 67.9874 154.021C67.8497 154.328 67.7763 154.66 67.7717 154.997C67.7672 155.334 67.8315 155.668 67.9607 155.979C68.0899 156.29 68.2814 156.571 68.5233 156.805C68.7652 157.039 69.0525 157.222 69.3674 157.341C69.4802 157.391 69.5974 157.431 69.7174 157.461C72.5146 158.68 74.8927 160.693 76.5574 163.251C78.0074 165.041 79.5574 166.521 82.2574 166.651C85.1674 166.801 86.4974 167.651 87.5374 169.861C88.2574 171.431 88.8174 172.981 89.5374 174.631C90.3996 176.974 91.4601 179.238 92.7074 181.401C93.6339 182.972 94.3627 184.651 94.8774 186.401C95.73 189.071 96.8524 191.648 98.2274 194.091C98.4474 194.541 99.3074 194.931 99.8474 195.281C100.082 195.536 100.287 195.818 100.457 196.121C100.908 197.101 101.412 198.056 101.967 198.981C102.537 200.141 103.617 201.421 101.357 201.981C102.022 201.933 102.685 202.102 103.246 202.462C103.807 202.823 104.235 203.356 104.467 203.981C104.467 204.071 104.577 204.241 104.757 204.341C106.757 205.341 106.757 206.281 105.527 207.031C107.087 208.091 108.707 208.961 110.297 210.031C111.572 210.975 113.164 211.388 114.737 211.181C116.197 211.101 117.587 211.181 117.387 209.661C117.387 209.431 118.007 209.211 118.267 209.041C118.527 208.871 118.967 208.551 119.337 208.271C118.447 208.271 117.947 208.551 117.257 208.571C116.683 208.672 116.092 208.63 115.537 208.451C114.076 207.44 112.667 206.356 111.317 205.201C111.251 205.071 111.216 204.927 111.216 204.781C111.216 204.635 111.251 204.491 111.317 204.361C111.528 203.307 111.84 202.275 112.247 201.281C112.627 200.281 111.827 199.861 110.687 199.661C109.547 199.461 108.507 199.141 107.147 198.771C107.527 198.501 107.627 198.241 107.867 198.171C109.697 196.671 109.767 195.621 108.267 193.421C108.137 193.194 108.092 192.928 108.142 192.671C108.191 192.413 108.332 192.183 108.537 192.021C109.857 191.021 109.147 190.161 108.177 189.181C107.887 188.901 107.687 188.611 107.327 188.181C109.437 187.891 111.497 187.801 111.407 185.701C111.407 184.061 111.157 182.751 108.527 181.921C110.197 181.561 111.587 181.351 113.057 180.981C111.947 179.981 111.787 179.131 112.837 178.541C113.136 178.22 113.346 177.827 113.447 177.401C114.377 175.401 113.677 173.491 112.527 171.501C112.384 171.308 112.281 171.088 112.227 170.854C112.172 170.62 112.166 170.377 112.209 170.141C112.252 169.904 112.343 169.679 112.477 169.48C112.611 169.28 112.785 169.11 112.987 168.981L113.107 168.911C114.239 168.088 115.328 167.207 116.367 166.271C116.921 165.644 117.208 164.826 117.167 163.991C117.407 163.071 117.167 161.991 117.427 161.161C117.817 160.161 118.267 159.051 117.317 158.061C116.863 157.66 116.492 157.173 116.228 156.628C115.964 156.082 115.811 155.489 115.778 154.884C115.746 154.279 115.834 153.673 116.038 153.103C116.242 152.532 116.558 152.008 116.967 151.561C117.267 151.096 117.5 150.591 117.657 150.061C117.816 149.783 117.916 149.475 117.951 149.157C117.987 148.838 117.957 148.516 117.863 148.21C117.769 147.904 117.614 147.62 117.407 147.376C117.199 147.132 116.944 146.933 116.657 146.791H116.587C113.889 145.216 110.769 144.517 107.657 144.791C105.951 145.073 104.201 144.907 102.577 144.311C101.237 143.821 99.6574 143.161 98.1074 144.261C98.1916 143.225 97.99 142.186 97.5245 141.257C97.059 140.327 96.3475 139.544 95.4674 138.991C94.8784 138.591 94.1792 138.384 93.4674 138.401C89.9974 139.401 86.9574 137.901 83.8674 136.911C83.5974 136.911 83.4174 136.591 83.3374 136.341C82.4374 134.771 81.8574 134.541 80.1574 135.621C78.4574 136.701 76.8674 136.031 75.2574 135.891C74.4274 135.751 73.6774 135.541 73.0174 135.381C73.2174 136.091 73.3374 136.811 73.5474 137.521C73.5474 137.581 73.5474 137.651 73.5474 137.851C73.1974 137.851 72.6974 137.931 72.6574 137.801C72.3474 136.741 72.0574 135.691 71.7674 134.631C69.7674 136.421 67.6174 137.631 67.5274 140.291C65.1674 138.821 65.1474 138.741 62.7474 140.101C61.9474 140.651 61.3174 140.331 60.6274 139.751C58.7174 138.311 58.5074 136.251 58.0074 134.321C57.5674 132.231 57.1874 132.011 55.0074 132.731C54.6774 132.731 54.4374 132.881 54.2774 132.901C53.6758 132.903 53.0747 132.939 52.4774 133.011C52.4774 132.451 52.3874 131.901 52.3574 131.421C52.4674 129.651 52.6074 127.891 52.7574 126.071C50.1374 126.321 49.5474 126.881 49.4474 128.791C49.4474 129.271 49.3874 130.131 49.0674 130.241C48.1298 130.748 47.117 131.103 46.0674 131.291C46.0674 132.101 46.1474 132.911 46.2074 133.711C47.3636 133.906 48.4749 134.309 49.4874 134.901C50.4145 135.37 51.4224 135.658 52.4574 135.751V135.751Z" fill="#3C90E5"/>
<g opacity="0.3">
<path d="M211.117 43.0107C250.457 84.1907 247.117 147.811 203.687 185.101C167.607 216.101 113.907 219.811 73.4473 194.151C112.747 235.371 179.857 238.591 223.347 201.341C266.837 164.091 270.227 100.461 230.937 59.2407C225.019 53.041 218.362 47.5904 211.117 43.0107Z" fill="#758CA0"/>
</g>
<path d="M46.647 116.591C48.647 114.011 48.847 114.021 52.367 115.401C52.9509 115.575 53.5732 115.575 54.157 115.401C55.057 115.111 55.447 115.401 55.557 116.151C55.777 116.541 55.687 117.031 55.927 117.481C56.1056 118.263 56.5438 118.962 57.1703 119.463C57.7968 119.964 58.5747 120.238 59.377 120.241C58.707 118.821 58.067 117.531 57.507 116.081C57.246 115.566 57.1058 114.998 57.097 114.421C57.1797 113.397 57.4892 112.405 58.0028 111.516C58.5165 110.627 59.2216 109.863 60.067 109.281C60.7848 108.797 61.289 108.056 61.4752 107.211C61.6613 106.365 61.5152 105.481 61.067 104.741C60.8646 104.251 60.6274 103.776 60.357 103.321C60.837 102.951 61.357 102.711 61.717 102.321C63.3947 100.988 64.9846 99.5481 66.477 98.0106C67.6371 96.5697 69.1639 95.4677 70.897 94.8206C71.05 95.3316 71.2649 95.8219 71.537 96.2806C72.054 96.3286 72.5753 96.2673 73.067 96.1006C74.717 95.2706 76.207 94.4606 77.777 93.5806C77.9214 93.5195 78.0516 93.4293 78.1595 93.3156C78.2674 93.2019 78.3507 93.0672 78.4042 92.9198C78.4577 92.7725 78.4802 92.6157 78.4704 92.4593C78.4605 92.3028 78.4185 92.1501 78.347 92.0106C78.2566 91.8332 78.1223 91.6817 77.957 91.5706C77.6943 91.6905 77.4432 91.8345 77.207 92.0006C75.147 93.4206 74.207 93.2906 73.207 91.2806C73.127 90.8906 72.867 90.4606 72.947 90.1206C73.357 88.3506 72.107 87.7006 70.257 87.5906C70.177 87.5906 70.177 87.4606 70.017 87.1406C71.607 87.0706 73.017 86.9406 74.547 86.9306C76.077 86.9206 77.477 86.9306 79.077 86.9306C79.0376 86.4749 79.1168 86.0167 79.307 85.6006C80.9742 85.5218 82.5768 84.9318 83.897 83.9106C84.117 83.7006 86.087 79.9106 84.897 80.0506L92.067 79.1806C92.8838 79.1823 93.6719 78.8792 94.277 78.3306C94.5834 77.8632 94.7531 77.3194 94.767 76.7606C94.925 73.6369 95.3296 70.5306 95.977 67.4706C96.607 66.5206 97.217 65.5506 97.777 64.5506C98.517 63.3806 99.097 62.8906 100.557 63.1306C101.201 63.2194 101.857 63.1766 102.484 63.0047C103.112 62.8328 103.698 62.5355 104.207 62.1306C105.636 61.1696 107.186 60.4029 108.817 59.8506C111.037 59.0306 113.367 58.5606 115.647 57.8506C116.267 57.6806 117.067 57.3906 117.107 57.1606C117.347 55.8706 118.417 55.9406 119.667 55.8906C119.767 54.5006 119.877 53.1606 119.977 51.9506C120.357 51.7206 120.797 51.2606 121.287 50.9506C122.377 50.1606 123.777 49.5006 123.657 48.2906C123.367 47.0606 123.657 46.1406 126.007 45.8806C124.707 45.0906 123.707 44.4706 122.647 43.7806C126.307 41.9606 129.647 40.2206 132.897 38.5706C131.437 37.6406 125.787 37.5706 123.467 38.5706C122.027 39.1906 121.867 39.1806 121.137 38.5706C122.647 37.7206 124.047 36.9806 125.567 36.1406C123.077 35.1406 120.717 34.1406 118.367 33.2006H118.037C116.487 33.1206 114.977 33.0006 113.457 32.8906C111.097 33.7606 108.137 35.0306 105.037 36.4206C72.447 51.6706 50.377 81.6706 46.507 115.931C46.507 116.161 46.507 116.381 46.437 116.591H46.647Z" fill="#3C90E5"/>
<path d="M251.187 90.8208C252.007 92.8208 252.717 94.9608 253.407 97.0608C287.507 110.871 282.237 131.131 237.407 143.301C186.307 157.171 102.887 157.171 51.407 143.301C-0.0730286 129.431 -0.303028 105.461 50.807 91.5908C51.457 91.4108 52.177 91.2708 52.807 91.0908C53.487 89.3808 54.247 87.7108 55.027 86.0908C50.457 87.0908 46.027 88.0908 41.817 89.2208C-14.183 104.431 -13.913 129.151 42.477 144.351C98.867 159.551 190.247 159.561 246.277 144.351C300.407 129.641 301.837 106.111 251.187 90.8208Z" fill="#3CE579"/>
<path d="M236.507 187.391C236.127 187.891 235.787 188.391 235.397 188.921C241.957 212.471 222.717 218.651 186.087 201.121C138.637 178.421 77.3871 124.731 49.5471 81.4409C21.7071 38.1509 39.1571 21.2909 86.6071 44.0109C87.5371 44.4509 88.4871 45.0109 89.4371 45.4509C90.8171 44.4509 92.2371 43.5809 93.6671 42.6909C89.6671 40.4609 85.6671 38.3309 81.7671 36.4809C29.7671 11.5909 12.2571 29.9309 42.7671 77.3909C73.2771 124.851 140.377 183.661 192.407 208.551C238.407 230.551 257.297 218.681 239.987 182.851C238.877 184.381 237.707 185.891 236.507 187.391Z" fill="#3CE579"/>
<path d="M155.857 22.1209C154.637 23.3409 153.437 24.6909 152.237 25.9909C155.237 25.9909 158.137 26.1709 161.037 26.4109C194.517 -2.98915 222.237 13.0709 221.127 63.0109C219.967 115.601 189.657 187.681 153.557 223.691C121.297 255.881 93.1168 246.761 88.7568 207.281C86.3568 205.581 84.0235 203.798 81.7568 201.931C81.8968 256.481 112.507 269.791 151.217 231.171C190.797 191.711 224.067 112.731 225.307 55.0709C226.547 -2.58914 195.407 -17.3391 155.857 22.1209Z" fill="#3CE579"/>
<path d="M238.467 68.3911C239.747 70.1011 240.977 71.8411 242.147 73.6311C274.277 74.6311 276.827 93.6311 243.477 119.691C204.067 150.491 130.587 180.821 79.6466 187.301C33.1466 193.221 20.5866 176.351 48.8766 150.091C48.4266 148.281 48.0366 146.451 47.6866 144.611C6.18661 177.721 16.7566 198.831 71.9566 191.811C127.747 184.711 208.287 151.481 251.497 117.711C291.987 86.0611 285.467 65.0111 238.467 68.3911Z" fill="#3CE579"/>
<path d="M103.517 191.811C107.03 191.811 109.877 189.111 109.877 185.781C109.877 182.451 107.03 179.751 103.517 179.751C100.005 179.751 97.1572 182.451 97.1572 185.781C97.1572 189.111 100.005 191.811 103.517 191.811Z" fill="#FFDE82"/>
<path d="M26.2968 146.741C31.4276 146.741 35.5868 142.797 35.5868 137.931C35.5868 133.065 31.4276 129.121 26.2968 129.121C21.1661 129.121 17.0068 133.065 17.0068 137.931C17.0068 142.797 21.1661 146.741 26.2968 146.741Z" fill="#FFDE82"/>
<path d="M73.4469 41.9008C76.9594 41.9008 79.8069 39.2011 79.8069 35.8708C79.8069 32.5405 76.9594 29.8408 73.4469 29.8408C69.9344 29.8408 67.0869 32.5405 67.0869 35.8708C67.0869 39.2011 69.9344 41.9008 73.4469 41.9008Z" fill="#FFDE82"/>
<path d="M223.027 70.431C228.158 70.431 232.317 66.4867 232.317 61.621C232.317 56.7554 228.158 52.811 223.027 52.811C217.897 52.811 213.737 56.7554 213.737 61.621C213.737 66.4867 217.897 70.431 223.027 70.431Z" fill="#FFDE82"/>
<path d="M201.157 157.151C204.807 157.151 207.767 154.344 207.767 150.881C207.767 147.418 204.807 144.611 201.157 144.611C197.506 144.611 194.547 147.418 194.547 150.881C194.547 154.344 197.506 157.151 201.157 157.151Z" fill="#FFDE82"/>
<path d="M276.507 135.461C281.638 135.461 285.797 131.516 285.797 126.651C285.797 121.785 281.638 117.841 276.507 117.841C271.376 117.841 267.217 121.785 267.217 126.651C267.217 131.516 271.376 135.461 276.507 135.461Z" fill="#FFDE82"/>
<path d="M137.037 248.951C142.168 248.951 146.327 245.007 146.327 240.141C146.327 235.275 142.168 231.331 137.037 231.331C131.906 231.331 127.747 235.275 127.747 240.141C127.747 245.007 131.906 248.951 137.037 248.951Z" fill="#FFDE82"/>
</svg>
