<svg viewBox="0 0 112 112" fill="none" xmlns="http://www.w3.org/2000/svg">
<g filter="url(#filter0_d_113_19)">
<circle cx="56" cy="56" r="40" fill="#151B26"/>
</g>
<path d="M60.2099 23.0508C57.7525 22.6777 55.2402 22.9756 52.9376 23.9132C50.0382 25.0896 47.4255 26.8777 45.277 29.156L20.1476 54.3402L27.397 61.613L64.2687 24.6305C63.0365 23.8338 61.6556 23.2963 60.2099 23.0508Z" fill="#3C90E5"/>
<path d="M89.3376 52.1793C89.0161 50.0524 88.0247 48.0826 86.5068 46.5548C84.9645 45.0359 82.9802 44.0423 80.8376 43.7159C78.3753 43.3473 75.8591 43.6335 73.5432 44.5455C70.6334 45.7037 68.0114 47.4801 65.8596 49.7514L51.7667 63.7935C51.3776 64.203 50.9073 64.527 50.3856 64.7449C49.971 64.9263 49.5148 64.992 49.0656 64.9352C48.6889 64.8884 48.3379 64.72 48.066 64.4557C47.8201 64.2064 47.6736 63.8763 47.654 63.5272C47.6256 63.0888 47.7041 62.65 47.8829 62.2485C48.1042 61.7278 48.4316 61.2587 48.8443 60.871L62.9449 46.8288C65.2251 44.6852 67.0066 42.069 68.1639 39.1646C69.0783 36.8626 69.3704 34.3614 69.0109 31.9114C68.7925 30.4652 68.2726 29.0807 67.4848 27.8472L41.6796 53.5492C39.3784 55.707 37.5787 58.3411 36.4071 61.2667C35.4962 63.5596 35.2323 66.0576 35.6441 68.4895C36.0045 70.6009 37.0127 72.5487 38.5296 74.0646C40.0466 75.5804 41.9975 76.5895 44.1136 76.9528C46.5495 77.3522 49.0483 77.0892 51.347 76.1917C54.2878 75.036 56.9372 73.2482 59.1069 70.9554L73.3677 56.7078C73.7189 56.3305 74.1486 56.0343 74.6267 55.8401C75.022 55.6763 75.4541 55.6211 75.878 55.6803C76.2547 55.7271 76.6058 55.8955 76.8776 56.1598C77.1367 56.4185 77.2938 56.7616 77.3201 57.1264C77.3551 57.5422 77.2978 57.9606 77.1523 58.3517C76.9645 58.8351 76.6728 59.2716 76.2977 59.6304L50.8434 85.0128L58.0768 92.2279L83.2564 67.1119C85.5336 64.9613 87.3122 62.3404 88.4678 59.4325C89.3899 57.1326 89.6899 54.6313 89.3376 52.1793Z" fill="#9ED264"/>
<defs>
<filter id="filter0_d_113_19" x="0" y="0" width="112" height="112" filterUnits="userSpaceOnUse" color-interpolation-filters="sRGB">
<feFlood flood-opacity="0" result="BackgroundImageFix"/>
<feColorMatrix in="SourceAlpha" type="matrix" values="0 0 0 0 0 0 0 0 0 0 0 0 0 0 0 0 0 0 127 0" result="hardAlpha"/>
<feOffset/>
<feGaussianBlur stdDeviation="8"/>
<feComposite in2="hardAlpha" operator="out"/>
<feColorMatrix type="matrix" values="0 0 0 0 0.933333 0 0 0 0 0.909804 0 0 0 0 0.662745 0 0 0 0.16 0"/>
<feBlend mode="normal" in2="BackgroundImageFix" result="effect1_dropShadow_113_19"/>
<feBlend mode="normal" in="SourceGraphic" in2="effect1_dropShadow_113_19" result="shape"/>
</filter>
</defs>
</svg>
