<svg width="100%" height="100%" viewBox="0 0 20 20" fill="none" xmlns="http://www.w3.org/2000/svg">
<path d="M3.41278 15.9448V15.5949C3.41278 14.9451 3.86361 14.3453 4.5148 14.1454C5.96744 13.7455 7.31991 13.0957 8.5221 12.196C8.87274 11.8961 9.07311 11.4962 9.07311 11.0463C9.07311 10.8964 9.02301 10.6964 8.97292 10.5465L8.62229 9.49682C8.62229 9.49682 7.72064 6.89763 8.62229 5.19817C9.07311 4.29845 10.0749 3.74862 11.0768 3.84859C11.227 3.84859 11.3773 3.89857 11.5276 3.94856C12.1788 4.1485 12.7799 4.59835 13.1305 5.19817C13.4311 5.99792 13.5813 6.79766 13.5813 7.6474C13.5813 7.74737 13.5813 7.84733 13.5813 7.9473C13.431 8.84702 13.1806 9.74674 12.88 10.5965C12.7799 10.7964 12.7298 11.0463 12.7298 11.2463C12.7298 11.7961 13.0303 12.2959 13.5312 12.5958C14.5331 13.1457 15.5349 13.6455 16.6369 14.0454C17.2881 14.2453 17.6888 14.8451 17.7389 15.4949V15.7948C17.7389 16.6446 15.2343 18.6439 14.483 18.9938C12.1788 20.0935 8.12137 20.0935 6.26799 19.1438C5.41644 18.7439 3.41278 16.7945 3.41278 15.9448Z" fill="#FFFEE5"/>
<path d="M0.00664207 10.3468C-0.193723 4.79849 4.16421 0.199937 9.67426 0C9.82453 0 9.92472 0 10.075 0C11.4776 0 12.8801 0.299906 14.1324 0.899717C17.8392 2.59918 20.1433 6.34801 19.9931 10.3967C19.943 12.9459 18.841 15.3952 16.9876 17.1446C13.1306 20.9434 6.91924 20.9434 3.01212 17.1946C1.20883 15.3952 0.106825 12.9459 0.00664207 10.3468ZM1.15874 10.3468C1.00846 13.9956 3.1123 17.3945 6.46842 18.8941C8.77262 19.9437 11.4275 19.9437 13.7317 18.944C17.1379 17.4445 19.2918 14.0456 19.1415 10.3468C19.0914 9.19711 18.841 8.04747 18.3401 6.9978C17.8391 5.94813 17.188 4.99843 16.3364 4.19868C14.6333 2.59918 12.3792 1.74945 10.075 1.74945C7.7708 1.74945 5.56678 2.64917 3.86368 4.24867C2.21067 5.84816 1.25892 8.04747 1.15874 10.3468Z" fill="#E8CD70"/>
</svg>
